<svg fill="currentColor" xmlns="http://www.w3.org/2000/svg" width="24" height="24" viewBox="0 0 24 24">
	<path d="M12,3.8c2.7,0,3,0,4,0.1c1,0.1,1.5,0.2,1.8,0.4C18.4,4.4,18.7,4.6,19,5c0.4,0.4,0.6,0.7,0.8,1.1C19.9,6.5,20.1,7,20.2,8
	c0.1,1.1,0.1,1.3,0.1,4s0,3-0.1,4c-0.1,1-0.2,1.5-0.4,1.8c-0.2,0.5-0.4,0.8-0.8,1.1c-0.4,0.4-0.7,0.6-1.1,0.8
	c-0.4,0.1-0.9,0.3-1.8,0.4c-1.1,0.1-1.3,0.1-4,0.1s-3,0-4-0.1c-1-0.1-1.5-0.2-1.8-0.4C5.6,19.6,5.3,19.4,5,19s-0.6-0.7-0.8-1.1
	C4.1,17.5,3.9,17,3.8,16c-0.1-1.1-0.1-1.3-0.1-4s0-3,0.1-4c0.1-1,0.2-1.5,0.4-1.8C4.4,5.6,4.6,5.3,5,5s0.7-0.6,1.1-0.8
	C6.5,4.1,7,3.9,8,3.8C9,3.8,9.3,3.8,12,3.8 M12,2C9.3,2,9,2,7.9,2.1C6.8,2.1,6.1,2.3,5.5,2.6S4.3,3.1,3.7,3.7S2.8,4.8,2.6,5.5
	C2.4,6.1,2.1,6.8,2.1,7.9C2,9,2,9.3,2,12s0,3,0.1,4.1c0.1,1.1,0.2,1.8,0.5,2.4c0.3,0.6,0.6,1.2,1.1,1.8s1.1,0.9,1.8,1.1
	s1.3,0.4,2.4,0.5C9,22,9.3,22,12,22s3,0,4.1-0.1s1.8-0.2,2.4-0.5c0.6-0.3,1.2-0.6,1.8-1.1s0.9-1.1,1.1-1.8c0.2-0.6,0.4-1.3,0.5-2.4
	C22,15,22,14.7,22,12s0-3-0.1-4.1s-0.2-1.8-0.5-2.4s-0.6-1.2-1.1-1.8s-1.1-0.9-1.8-1.1c-0.6-0.2-1.3-0.4-2.4-0.5C15,2,14.8,2,12,2
	L12,2z M12,6.9c-2.8,0-5.2,2.3-5.2,5.2s2.3,5.2,5.2,5.2s5.2-2.3,5.2-5.2S14.8,6.9,12,6.9z M12,15.3c-1.8,0-3.3-1.5-3.3-3.3
	s1.5-3.3,3.3-3.3s3.3,1.5,3.3,3.3S13.8,15.3,12,15.3z M17.4,5.5c0.6,0,1.2,0.6,1.2,1.2S18,7.9,17.4,7.9c-0.6,0-1.2-0.6-1.2-1.2
	S16.7,5.5,17.4,5.5z"/>
</svg>
