<svg fill="currentColor" xmlns="http://www.w3.org/2000/svg" width="24" height="24" viewBox="0 0 24 24">
	<path d="M12,1.9c-5.5,0-10,4.5-10,10c0,4.1,2.4,7.6,6,9.2c0-0.7,0-1.6,0.2-2.3c0.2-0.8,1.3-5.4,1.3-5.4s-0.3-0.6-0.3-1.6
	c0-1.5,0.9-2.6,1.9-2.6c0.9,0,1.4,0.7,1.4,1.5c0,0.9-0.6,2.3-0.9,3.6c-0.2,1.1,0.6,1.9,1.6,1.9c1.9,0,3.2-2.4,3.2-5.3
	c0-2.2-1.5-3.8-4.2-3.8c-3.1,0-4.9,2.2-4.9,4.8c0,0.9,0.2,1.5,0.7,1.9C8.1,14,8.1,14.1,8,14.4C8,14.6,7.9,15,7.9,15.2
	c-0.1,0.2-0.2,0.4-0.5,0.2c-1.4-0.6-2.1-2.1-2.1-3.8c0-2.8,2.4-6.2,7.1-6.2c3.8,0,6.3,2.7,6.3,5.7c0,3.9-2.2,6.9-5.4,6.9
	c-1.1,0-2.1-0.6-2.4-1.2c0,0-0.6,2.3-0.7,2.7c-0.2,0.7-0.6,1.6-1,2.1c0.9,0.2,1.9,0.4,2.8,0.4c5.5,0,10-4.5,10-10
	C21.9,6.4,17.5,1.9,12,1.9z"/>
</svg>
