<svg fill="currentColor" xmlns="http://www.w3.org/2000/svg" width="24" height="24" viewBox="0 0 24 24">
<path d="M14.2,16c0,0.4,0,0.7,0,1.1c0,1.3-0.2,2.6-0.6,3.9c-0.2,0.6-0.5,1.2-0.9,1.6c-0.5,0.5-1,0.5-1.5,0c-0.6-0.6-0.9-1.3-1.1-2
	c-0.4-1.5-0.5-3-0.5-4.5c0-1.3,1.1-2.3,2.3-2.3C13.1,13.8,14.1,14.8,14.2,16z M12,8.5c-1.3,0-2.4,1.1-2.4,2.4c0,1.3,1.1,2.3,2.3,2.3
	c1.3,0,2.4-1.1,2.3-2.4C14.3,9.6,13.2,8.5,12,8.5z M21.5,10.5c-0.5-5-4.9-8.8-10-8.5c-5,0.2-9.1,4.5-9,9.5c0,5,3.7,8.3,6.6,9
	c-0.1-0.4-0.2-0.9-0.2-1.3c-0.1-0.1-0.3-0.3-0.5-0.4c-3.2-1.5-5-5.1-4.5-8.6C4.6,5.5,9,2.5,13.7,3.4c4.4,0.9,7.4,5.4,6.4,9.8
	c-0.6,2.7-2.2,4.6-4.7,5.8c-0.1,0-0.2,0.1-0.3,0.1c-0.1,0.5-0.1,0.9-0.2,1.4C18.1,19.8,22.1,16,21.5,10.5z M12.9,6.7
	c1.9,0.4,3.2,1.6,3.8,3.5c0.6,1.9,0.1,3.6-1.4,5c0,0,0,0,0,0c0,0.4,0,0.9,0,1.3c0,0.1,0,0.2,0,0.4c1.9-1,3.4-3.8,2.7-6.7
	c-0.7-2.9-3.4-4.9-6.5-4.8c-2.8,0.1-5.3,2.3-5.9,5.1c-0.6,3,1.3,5.6,2.9,6.4c0-0.5,0-1.1,0-1.6c0,0-0.1-0.1-0.1-0.1
	c-0.9-0.9-1.4-2-1.5-3.4C6.7,8.6,9.8,5.9,12.9,6.7z"/>
</svg>
