<svg fill="currentColor" xmlns="http://www.w3.org/2000/svg" width="24" height="24" viewBox="0 0 24 24">
	<path d="M12,2C6.5,2,2,6.5,2,12c0,5.5,4.5,10,10,10c5.5,0,10-4.5,10-10C22,6.5,17.5,2,12,2L12,2z M16.6,16.4
	c-0.2,0.3-0.6,0.4-0.9,0.2c-2.3-1.4-5.3-1.8-8.8-1c-0.3,0.1-0.7-0.1-0.7-0.5c-0.1-0.3,0.1-0.7,0.5-0.7c3.8-0.9,7.1-0.5,9.7,1.1
	C16.7,15.7,16.8,16.1,16.6,16.4z M17.8,13.7c-0.2,0.4-0.7,0.5-1.1,0.3c-2.7-1.7-6.8-2.1-10-1.2c-0.4,0.1-0.8-0.1-1-0.5
	c-0.1-0.4,0.1-0.8,0.5-1c3.6-1.1,8.1-0.6,11.2,1.3C17.9,12.9,18,13.3,17.8,13.7L17.8,13.7z M17.9,10.9C14.7,9,9.4,8.8,6.3,9.7
	c-0.5,0.1-1-0.1-1.2-0.6C5,8.6,5.3,8.1,5.8,7.9c3.5-1.1,9.4-0.9,13.1,1.3c0.4,0.3,0.6,0.8,0.3,1.3C18.9,11,18.4,11.1,17.9,10.9
	L17.9,10.9z"/>
</svg>
