<svg fill="currentColor" xmlns="http://www.w3.org/2000/svg" width="24" height="24" viewBox="0 0 24 24">
	<path d="M23,5.2c-0.8,0.3-1.7,0.6-2.6,0.7c1-0.5,1.7-1.4,2-2.5c-0.9,0.5-1.9,0.9-2.9,1.1c-0.8-0.9-2-1.4-3.2-1.4
	c-2.5,0-4.5,2-4.5,4.5c0,0.3,0.1,0.7,0.1,1c-3.8-0.2-7.1-2-9.3-4.7C2.2,4.6,2,5.3,2,6.2c0,1.6,0.8,3,2,3.8c-0.8,0-1.4-0.2-2.1-0.5
	v0.1c0,2.2,1.6,4,3.6,4.4C5.1,13.9,4.8,14,4.4,14c-0.3,0-0.5,0-0.8-0.1c0.5,1.8,2.3,3.1,4.2,3.2C6.2,18.3,4.2,19,2.1,19
	c-0.3,0-0.8,0-1.1-0.1c2,1.3,4.4,2,6.9,2c8.3,0,12.9-6.9,12.9-12.9c0-0.2,0-0.4,0-0.5C21.6,6.8,22.4,6.1,23,5.2z"/>
</svg>
